<svg id="Layer_1" data-name="Layer 1" xmlns="http://www.w3.org/2000/svg" viewBox="0 0 503.83 678.36"><defs><style>.cls-1{fill:#e4ad52;}.cls-1,.cls-2,.cls-3{stroke:#000;stroke-miterlimit:10;}.cls-1,.cls-2{stroke-width:15px;}.cls-2,.cls-3{fill:none;}.cls-3{stroke-width:31px;}.cls-4{font-size:155.26px;font-family:Broadway;}</style></defs><path class="cls-1" d="M681.1,416.3a212.25,212.25,0,0,1-65.36,3.55c-56.94-5.91-85.38-33.11-129.45-50C448,355.18,393.9,346.73,318.9,367.36V237l73.78,61.8L500,166.74l108.89,132,72.21-65.85Z" transform="translate(-248.03 -154.9)"/><path class="cls-2" d="M743.93,619.57c-31.64,17.2-78.52,35.84-133.28,30-55.48-5.9-83.18-33.11-126.12-50-47.66-18.74-120.58-27.34-229,22l.36-187.81c108.4-49.35,181.32-40.75,229-22,42.94,16.89,70.65,44.09,126.12,50,54.76,5.83,101.64-12.8,133.28-30Z" transform="translate(-248.03 -154.9)"/><path class="cls-3" d="M744.45,454.76c-31.64,17.2-78.52,35.83-133.27,30-55.48-5.91-83.19-33.11-126.12-50-47.66-18.75-120.59-27.35-229,22" transform="translate(-248.03 -154.9)"/><path class="cls-3" d="M744.05,596.85c-31.64,17.2-78.52,35.83-133.28,30-55.48-5.91-83.18-33.11-126.12-50-47.66-18.75-120.58-27.35-229,22" transform="translate(-248.03 -154.9)"/><line class="cls-2" x1="127.32" y1="237.24" x2="126.92" y2="425.05"/><line class="cls-2" x1="252.32" y1="266.93" x2="251.92" y2="454.74"/><line class="cls-2" x1="377.32" y1="301.93" x2="376.92" y2="489.74"/><text class="cls-4" transform="translate(15.29 639.85) scale(0.96 1)">DMDB</text></svg>